# xmcd CD database file
#
# Track frame offsets:
#	150
#	15942
#	29590
#	47987
#	68255
#	86400
#	99442
#	114772
#	132090
#	147370
#	162577
#	177100
#	194475
#	208627
#	238175
#
# Disc length: 3221 seconds
#
# Revision: 9
# Processed by: cddbd v1.5.2PL0 Copyright (c) Steve Scherf et al.
# Submitted via: CDex 1.70beta2
#
DISCID=c40c930f
DTITLE=Rod Stewart - Stardust - The Great American Songbook 3
DYEAR=2004
DGENRE=Jazz
TTITLE0=Rod Stewart - Embraceable You (George Gershwin/Ira Gershwin/)
TTITLE1=Rod Stewart and Dave Koz - For Sentimental Reasons (William Best/Deek Watson/)
TTITLE2=Rod Stewart and Eric Clapton - Blue Moon (Richard Rodgers/Lorenz Hart/)
TTITLE3=Rod Stewart and Stevie Wonder - What A Wonderful World (George D. Weiss/Robert Thiele/)
TTITLE4=Rod Stewart - Stardust (Hoagy Carmichael/Mitchell Parish/)
TTITLE5=Rod Stewart and Bette Midler - Manhattan (Richard Rodgers/Lorenz Hart/)
TTITLE6=Rod Stewart and Dave Grusin - 'S Wonderful (George Gershwin/Ira Gershwin/)
TTITLE7=Rod Stewart and Dave Koz - Isn't It Romantic (Richard Rodgers/Lorenz Hart/)
TTITLE8=Rod Stewart - I Can't Get Started (Vernon Duke/Ira Gershwin/)
TTITLE9=Rod Stewart - But Not For Me (George Gershwin/Ira Gershwin/)
TTITLE10=Rod Stewart and Arturo Sandoval - A Kiss To Build A Dream On (Oscar Hammerstein 2/Bert Kalmar/Harry Ruby)
TTITLE11=Rod Stewart and Dolly Parton - Baby, It's Cold Outside (Frank Loesser//)
TTITLE12=Rod Stewart - Night And Day (Cole Porter//)
TTITLE13=Rod Stewart - A Nightingale Sang In Berkeley Square (Eric Maschwitz/Manning Sherwin/)
TTITLE14=Data Track
EXTD=YEAR: 2004
EXTT0=
EXTT1=
EXTT2=
EXTT3=
EXTT4=
EXTT5=
EXTT6=
EXTT7=
EXTT8=
EXTT9=
EXTT10=
EXTT11=
EXTT12=
EXTT13=
EXTT14=
PLAYORDER=
